PathFileType	4	(X/Y/Z)	 s07c0303.trc
DataRate	CameraRate	NumFrames	NumMarkers	Units	OrigDataRate	OrigDataStartFrame	OrigNumFrames
200	200	7	48	mm	200	1501	2000
Frame#	Time	racr			lacr			c7			jug			rlel			rdr			llel			ldr			s2			lic			ric			lasi			rasi			rpsi			lpsi			rgt			lgt			rth1			rth2			rth3			rth4			rlfc			rmfc			rsh1			rsh2			rsh3			rsh4			rlmal			rcal			rtoe			rmt5			lth1			lth2			lth4			lth3			llfc			lmfc			lsh1			lsh2			lsh3			lsh4			llmal			lcal			ltoe			lmt5			SBIKE			LBIKE			RBIKE			
		X1	Y1	Z1	X2	Y2	Z2	X3	Y3	Z3	X4	Y4	Z4	X5	Y5	Z5	X6	Y6	Z6	X7	Y7	Z7	X8	Y8	Z8	X9	Y9	Z9	X10	Y10	Z10	X11	Y11	Z11	X12	Y12	Z12	X13	Y13	Z13	X14	Y14	Z14	X15	Y15	Z15	X16	Y16	Z16	X17	Y17	Z17	X18	Y18	Z18	X19	Y19	Z19	X20	Y20	Z20	X21	Y21	Z21	X22	Y22	Z22	X23	Y23	Z23	X24	Y24	Z24	X25	Y25	Z25	X26	Y26	Z26	X27	Y27	Z27	X28	Y28	Z28	X29	Y29	Z29	X30	Y30	Z30	X31	Y31	Z31	X32	Y32	Z32	X33	Y33	Z33	X34	Y34	Z34	X35	Y35	Z35	X36	Y36	Z36	X37	Y37	Z37	X38	Y38	Z38	X39	Y39	Z39	X40	Y40	Z40	X41	Y41	Z41	X42	Y42	Z42	X43	Y43	Z43	X44	Y44	Z44	X45	Y45	Z45	X46	Y46	Z46	X47	Y47	Z47	X48	Y48	Z48	
1501	7.5050	799.171942	1404.860634	-109.200604	821.604414	1353.353130	-431.783550	817.315402	1436.308991	-274.318897	753.723763	1295.913017	-264.675650	594.196399	1147.661480	36.070007	732.168813	911.697503	-57.287353	572.555839	1115.647576	-544.661485	726.394294	914.884307	-408.054259	212.890564	1301.381843	-257.797270	361.073492	1306.767233	-418.804583	398.024994	1306.502445	-127.124244	374.461686	1228.435968	-390.938006	402.521716	1251.064748	-141.283679	252.621127	1335.759874	-210.482075	253.858427	1338.513126	-321.286491	324.251823	1191.240607	-73.351022	270.664490	1167.680563	-426.320112	417.585248	1056.553821	-72.067045	473.682934	990.251004	-84.239262	495.311443	907.508827	-79.926106	500.325744	1005.099532	-105.760971	524.275330	777.318569	-107.343233	504.193864	766.189894	-211.110306	394.488520	718.675583	-80.217747	327.969317	661.362281	-91.217905	242.601246	643.276953	-85.036261	337.045135	643.037891	-127.694745	116.879183	585.061886	-79.347955	51.486530	620.509990	-109.276015	158.718329	349.757124	-123.616963	98.709306	407.043295	-53.079536	297.366725	1044.537204	-432.141954	344.099430	970.051201	-433.604032	379.255441	980.154548	-428.862243	348.077874	881.779758	-423.122113	394.690444	716.216986	-390.125928	383.517060	701.740133	-300.306786	328.028267	583.753350	-410.439438	317.786718	500.402688	-389.897718	264.916420	426.826484	-393.202623	322.047483	503.014336	-347.715899	205.097172	306.191913	-388.783980	129.049286	278.882462	-355.668119	412.022419	211.456388	-356.826379	326.991786	201.007384	-420.074633	-256.363971	964.809376	-233.008011	-75.414624	83.409143	-436.685387	-81.718060	80.170937	-39.142881	
1502	7.5100	798.633084	1405.695743	-106.597412	822.490688	1352.119508	-425.452743	817.524482	1436.626448	-271.301661	754.063671	1296.089158	-261.226408	594.206805	1147.353843	37.464664	732.117239	911.755024	-57.006899	574.976878	1117.042413	-545.418443	726.609636	914.897378	-408.283434	213.331095	1298.943965	-261.945568	363.866166	1302.909522	-420.517013	396.286293	1306.417282	-128.751652	377.073357	1224.477569	-391.726307	401.095677	1250.881412	-142.014773	252.231425	1334.074170	-214.516939	255.386659	1335.196948	-324.786064	322.861401	1191.670650	-74.399908	272.837290	1163.938762	-427.706768	418.942576	1059.312772	-73.054845	476.658497	993.942833	-83.927163	499.516466	911.858224	-79.108012	503.514023	1009.356889	-104.728583	530.907238	781.501145	-106.009143	511.608509	770.460204	-209.696552	400.613848	724.169055	-79.802947	333.461955	667.715137	-91.109444	247.881497	650.615101	-85.333252	342.031686	648.737267	-127.394879	121.902364	593.240652	-80.061320	55.514162	627.940022	-110.343336	168.154088	359.355351	-123.132282	106.620100	415.667351	-53.129052	295.972339	1040.570043	-433.612364	340.169597	964.527464	-434.439069	375.635628	973.442447	-429.378663	341.084856	876.076761	-423.817893	383.140739	710.289411	-390.350107	370.856204	695.962512	-301.440494	317.709959	577.687737	-410.932386	308.383754	494.262801	-390.532891	256.278494	420.406198	-394.636435	312.117366	497.121458	-348.218843	197.561957	298.829378	-389.273371	121.690587	272.303984	-356.192754	404.363531	203.355021	-356.785330	319.480924	193.134006	-420.118314	-256.378675	964.798065	-233.033710	-75.438759	83.401643	-436.674118	-81.732759	80.152556	-39.147352	
1503	7.5150	797.887665	1406.653309	-103.345390	824.312001	1352.247997	-421.428258	817.670786	1437.044160	-268.065784	754.970218	1296.090083	-257.480587	594.154696	1146.951871	38.884258	732.060483	911.757210	-56.758597	577.565605	1118.525158	-546.002413	726.855039	914.920888	-408.498226	213.740462	1296.444632	-265.938383	366.976950	1298.966117	-422.162110	394.579208	1306.340834	-130.415299	379.674257	1220.521870	-392.632438	399.756318	1250.623594	-142.778808	251.781817	1332.095252	-218.867890	257.204270	1331.651746	-327.539728	321.534675	1192.159960	-75.509246	275.007558	1160.249487	-429.165351	420.277903	1062.185307	-74.210460	479.558117	997.736500	-83.424120	503.604637	916.091913	-78.023906	506.686247	1013.649129	-103.494480	537.285611	785.801498	-104.486837	519.289950	774.725457	-208.584080	407.072127	729.497422	-79.090976	339.463694	673.462150	-90.927863	253.801848	657.145182	-85.491250	348.600335	654.629985	-126.696371	127.565076	600.889447	-80.750202	60.701870	634.645578	-111.421770	177.653049	368.009618	-122.683419	115.081840	423.616839	-53.051752	294.490496	1036.807103	-435.223697	336.200037	959.174890	-435.023203	371.905710	967.080794	-429.972917	333.916771	870.848554	-424.879324	371.472631	705.016376	-391.039209	358.044492	690.785893	-302.407666	307.095190	572.247936	-411.828787	298.652813	488.725125	-391.344682	247.333830	414.300269	-395.462082	302.124771	491.774769	-349.049369	189.777205	292.137591	-389.753191	114.084549	266.469487	-356.703495	396.276323	195.439600	-356.613081	311.480487	185.768188	-420.134855	-256.379395	964.831217	-233.094879	-75.408099	83.224692	-436.583908	-81.747062	80.111809	-39.134195	
1504	7.5200	796.952034	1407.722961	-100.025619	825.088866	1351.217114	-412.757765	817.675081	1437.336258	-264.443819	755.525450	1296.318797	-253.627004	593.912037	1146.514070	40.250202	732.004976	911.842525	-56.481033	580.259203	1120.296068	-546.513073	727.135806	914.945034	-408.691489	214.246599	1293.835514	-270.036659	370.007471	1295.111778	-423.560683	392.718671	1306.380953	-130.871687	382.268473	1216.514481	-393.527863	398.430307	1250.531457	-143.646604	251.539091	1329.792143	-223.442795	258.702248	1328.572665	-331.756478	320.253936	1192.776987	-76.686498	276.932726	1156.354228	-430.234922	421.668076	1064.994362	-75.093600	482.254141	1001.514559	-82.716860	507.416788	920.348235	-76.953537	509.490316	1017.957760	-102.222471	543.843013	791.046799	-102.680766	526.879886	779.259232	-207.000864	413.846962	734.509095	-78.345593	345.993566	678.954009	-90.643332	260.197286	662.919219	-85.588245	355.908146	659.742068	-126.240464	133.832192	607.726148	-81.583368	66.474451	640.903164	-112.489277	187.261114	375.740455	-122.399167	123.716684	430.958552	-53.149286	292.950796	1033.392257	-436.893615	332.067369	954.387578	-436.332450	367.734895	961.445188	-431.221528	326.858602	866.321293	-426.287929	359.662804	700.368349	-392.109932	344.665023	687.022439	-303.881428	295.957923	567.509086	-413.048730	288.579818	483.908214	-392.509853	238.002191	408.972639	-396.492635	292.173970	487.172291	-350.570228	181.815198	286.281441	-390.392989	106.209474	261.436612	-357.354241	387.780823	188.072875	-356.372615	303.194699	178.973859	-420.083053	-256.376622	964.745828	-233.032527	-75.424495	83.228149	-436.554800	-81.758628	80.053530	-39.104584	
1505	7.5250	795.939681	1408.738656	-96.717357	826.952512	1351.497620	-408.323952	817.660015	1437.787524	-260.869233	756.179722	1296.612657	-250.072979	593.470712	1146.136927	41.597058	731.894257	911.972094	-56.206943	583.105517	1121.973104	-546.824241	727.456009	914.956590	-408.853513	214.788740	1291.218340	-274.113055	373.260512	1291.090610	-425.031041	391.014860	1306.399131	-132.518572	384.919010	1212.582018	-394.323120	397.116408	1250.435576	-144.335209	251.106973	1327.824107	-227.512152	260.042621	1325.484114	-336.935896	318.974021	1193.379338	-78.204038	278.925198	1152.907266	-431.630950	422.806066	1067.720355	-74.795419	484.683052	1005.371234	-81.841811	511.086144	924.488594	-75.814530	511.783993	1022.316935	-101.051568	550.534464	796.159799	-100.849409	534.629885	783.906938	-205.226738	420.890470	739.255145	-77.657930	352.900523	683.784663	-90.284614	267.047589	668.028609	-85.652531	362.888937	664.800209	-125.802221	130.336430	615.700548	-93.039175	73.040149	646.541870	-112.856502	197.174734	382.925905	-122.641921	133.334503	437.498074	-53.208930	291.374359	1030.401369	-438.564072	327.918743	950.196943	-437.855493	363.721384	956.043197	-432.196180	320.118365	862.414429	-427.697600	347.888198	696.351389	-393.408557	333.325494	682.464018	-305.190858	284.904021	563.382621	-414.527715	278.301820	479.716025	-393.874833	228.364288	404.331652	-397.740846	282.434746	483.525105	-352.287685	173.631371	281.134409	-390.871993	98.168738	257.165899	-358.100817	379.015979	181.141220	-356.115071	294.476894	172.668563	-420.095790	-256.430523	964.719255	-232.864979	-75.426176	83.220006	-436.551199	-81.787911	80.004921	-39.106253	
1506	7.5300	794.735361	1409.953249	-92.918109	828.705138	1351.915491	-403.692927	817.559375	1438.270496	-257.103348	756.606613	1297.012767	-246.165500	592.828055	1145.794925	42.921892	731.139619	911.660688	-56.349063	586.067215	1123.673614	-546.970287	727.815743	914.939172	-408.970393	215.386085	1288.732402	-278.083727	376.425564	1287.176094	-426.163284	389.381214	1306.441188	-134.669616	387.662695	1208.736594	-395.013705	395.755240	1250.551729	-144.944928	250.795072	1325.881587	-231.480256	261.555719	1322.488865	-340.915677	317.521095	1193.848368	-79.663693	280.917659	1149.708255	-432.966543	423.832159	1070.463501	-73.880672	486.875296	1009.310212	-80.883158	514.685993	928.811140	-74.341634	513.617814	1026.674851	-100.129044	557.169791	801.527159	-98.853262	542.424155	788.832865	-203.539461	428.180452	743.590608	-76.654575	360.128297	688.389508	-89.828067	274.152994	672.823036	-85.496834	370.101672	669.728541	-125.518030	122.060412	623.817519	-109.740824	79.998311	651.469666	-112.978188	207.538036	390.047528	-121.906192	143.171405	443.454521	-53.460775	289.710319	1027.911172	-440.293331	323.736413	946.543980	-439.464723	359.663801	951.286477	-433.306551	313.732834	859.095088	-429.094801	336.045654	692.991775	-394.711319	321.311398	679.190891	-306.697548	273.825962	559.964320	-416.092336	268.011303	476.262131	-395.596196	218.580888	400.454232	-399.074783	272.442420	479.959958	-353.927376	165.429464	276.597213	-391.555078	89.968466	253.846185	-358.833852	370.001343	174.660612	-355.982499	285.663141	166.759067	-419.938681	-256.493894	964.691961	-232.702962	-75.444573	83.223466	-436.534359	-81.802486	80.004954	-39.074297	
1507	7.5350	793.444671	1411.074859	-89.326702	830.551314	1352.401455	-399.085529	817.492040	1438.658122	-253.133002	756.916469	1297.372570	-242.170484	592.056643	1145.361516	44.201904	730.970160	911.807217	-56.200172	589.116019	1125.358418	-546.973211	728.209318	914.874453	-409.024181	216.091141	1286.348794	-282.014264	379.753830	1283.334232	-427.147766	387.604493	1306.294383	-136.123538	390.395613	1205.060974	-395.829880	394.584752	1250.250261	-146.524058	250.524657	1324.077467	-235.258304	263.226092	1319.439449	-344.536802	316.098703	1194.438419	-81.158941	282.871234	1146.708100	-434.225683	424.715010	1073.078952	-73.028955	488.923788	1013.239045	-79.995407	518.663883	933.393353	-73.414448	515.212886	1031.068733	-99.425306	563.764994	807.145779	-96.912256	550.261498	793.928428	-201.717380	435.566499	747.785374	-75.356965	367.563955	692.745644	-89.269150	281.674328	676.803030	-85.304482	377.508815	674.706126	-125.251029	113.986761	631.081932	-126.311514	86.947835	655.926027	-112.778310	217.655277	395.487287	-122.765239	153.082416	448.838743	-53.574697	288.097669	1025.941759	-441.970719	319.600988	943.568567	-441.180171	355.634676	947.162819	-434.562385	307.738780	856.330396	-430.465997	324.428227	690.389340	-396.407499	309.691368	676.494242	-308.339156	262.923317	556.987512	-417.622736	257.789211	473.489764	-397.418323	208.830810	397.343378	-400.592255	261.982156	476.784192	-355.779274	157.242814	273.027692	-392.555327	81.587846	250.950420	-359.364908	360.705725	168.622875	-355.903255	276.459758	161.504979	-420.047166	-256.565124	964.671504	-232.560725	-75.455310	83.243539	-436.526863	-81.805915	79.985228	-39.088330	
